<?xml version="1.0" encoding="UTF-8" standalone="no"?>
<svg
   xmlns:dc="http://purl.org/dc/elements/1.1/"
   xmlns:cc="http://creativecommons.org/ns#"
   xmlns:rdf="http://www.w3.org/1999/02/22-rdf-syntax-ns#"
   xmlns:svg="http://www.w3.org/2000/svg"
   xmlns="http://www.w3.org/2000/svg"
   xmlns:sodipodi="http://sodipodi.sourceforge.net/DTD/sodipodi-0.dtd"
   xmlns:inkscape="http://www.inkscape.org/namespaces/inkscape"
   width="40mm"
   height="40mm"
   viewBox="0 0 40.000001 39.999999"
   version="1.1"
   id="svg8"
   inkscape:version="1.0 (4035a4fb49, 2020-05-01)"
   sodipodi:docname="back.svg">
  <defs
     id="defs2">
    <inkscape:path-effect
       update_on_knot_move="true"
       attempt_force_join="true"
       miter_limit="4"
       offset="0"
       unit="mm"
       linejoin_type="miter"
       lpeversion="1"
       is_visible="true"
       id="path-effect852"
       effect="offset" />
    <inkscape:path-effect
       update_on_knot_move="true"
       attempt_force_join="true"
       miter_limit="4"
       offset="0.1"
       unit="mm"
       linejoin_type="miter"
       lpeversion="1"
       is_visible="true"
       id="path-effect843"
       effect="offset" />
  </defs>
  <sodipodi:namedview
     id="base"
     pagecolor="#ffffff"
     bordercolor="#666666"
     borderopacity="1.0"
     inkscape:pageopacity="0"
     inkscape:pageshadow="2"
     inkscape:zoom="5.6"
     inkscape:cx="63.213792"
     inkscape:cy="84.548854"
     inkscape:document-units="mm"
     inkscape:current-layer="layer1"
     inkscape:document-rotation="0"
     showgrid="false"
     scale-x="1"
     inkscape:window-width="2560"
     inkscape:window-height="1377"
     inkscape:window-x="2552"
     inkscape:window-y="-8"
     inkscape:window-maximized="1" />
  <metadata
     id="metadata5">
    <rdf:RDF>
      <cc:Work
         rdf:about="">
        <dc:format>image/svg+xml</dc:format>
        <dc:type
           rdf:resource="http://purl.org/dc/dcmitype/StillImage" />
        <dc:title></dc:title>
      </cc:Work>
    </rdf:RDF>
  </metadata>
  <g
     inkscape:label="Layer 1"
     inkscape:groupmode="layer"
     id="layer1">
    <path
       style="fill:#000000;stroke-width:0.264583"
       d="M 4.8885294,38.675071 C 0.35053935,37.277151 0.01777936,36.058001 0.01777936,20.829851 0.01777936,4.9347413 -0.04312065,5.1192913 6.1325694,2.3090213 10.31603,0.40533131 29.81037,0.46351131 34.01674,2.3922213 c 6.043772,2.77122 5.953122,2.49047 5.953122,18.4376097 0,19.35783 1.20238,18.26631 -20.090212,18.23783 -11.0850006,-0.0148 -14.0137606,-0.0915 -14.9911206,-0.39261 z M 34.10279,36.664221 c 0.21287,-0.33752 -0.0103,-1.06313 -0.97638,-3.175 -1.94907,-4.26058 -24.2720406,-4.30777 -26.2024906,-0.0554 -1.37156,3.02125 -1.39699,3.13973 -0.75458,3.51575 0.87879,0.51437 27.6012406,0.24139 27.9334506,-0.28536 z M 4.3930294,35.448081 c 1.90411,-3.16353 2.78663,-6.15156 1.81689,-6.15156 -0.34094,0 -3.41401,4.67579 -3.41401,5.19454 0,1.04347 1.13554,1.72391 1.59712,0.95702 z m 32.3148506,0.0251 c 0.75996,-0.68775 0.56632,-1.38365 -1.05127,-3.77814 -2.44247,-3.61554 -3.18469,-3.07319 -1.3658,0.99801 1.5557,3.48209 1.59344,3.5255 2.41707,2.78013 z M 3.8861794,29.897741 c 1.28244,-1.98859 1.45385,-2.40155 1.24524,-2.99998 -0.13583,-0.38964 -0.20785,-5.35302 -0.16424,-11.31859 0.044,-6.0140597 -0.0235,-10.6245797 -0.15557,-10.6244997 -0.5556,3.5e-4 -2.50318,2.3201 -2.77752,3.30831 -0.44299,1.59569 -0.41105,23.9444597 0.0342,23.9423497 0.1819,-7.9e-4 0.99995,-1.03928 1.81788,-2.30759 z m 34.3580826,-9.39865 c -0.005,-10.7522397 -0.0451,-11.7943797 -0.487632,-12.7684197 -0.43535,-0.9583 -2.15402,-2.77596 -2.62462,-2.77579 -1.1238,4.3e-4 0.0428,23.4549197 1.25601,25.2528697 1.947482,2.88604 1.862712,3.32939 1.856242,-9.70866 z m -6.445752,8.38417 c 1.9075,-1.42481 1.82135,-0.82488 1.82135,-12.68365 0,-14.5904597 1.36317,-13.2001197 -13.04697,-13.3070497 C 5.1623294,2.7782013 6.3993694,1.6850113 6.2870094,15.517131 c -0.12388,15.25054 -1.36494,14.02636 14.1507606,13.95829 10.28615,-0.0451 10.65407,-0.0643 11.36074,-0.59216 z m -14.6686,-8.33354 c -1.14917,-0.46073 -0.61562,-1.17511 0.87766,-1.17511 1.84425,0 1.98445,-0.71879 0.2825,-1.44834 -2.01953,-0.86567 -2.18211,-2.72528 -0.31607,-3.61513 0.91059,-0.43423 2.62932,-0.34351 2.93744,0.15505 0.34256,0.55427 -0.17651,1.0482 -0.94089,0.89532 -1.79189,-0.35837 -1.869,0.69377 -0.10793,1.47278 3.24295,1.43451 0.58653,5.04621 -2.73271,3.71543 z m 7.36196,-0.0171 c -3.27536,-1.30606 -2.57619,-5.89915 0.98465,-6.46855 1.32617,-0.21207 2.19775,0.19758 2.0032,0.9415 -0.10817,0.41364 -0.35966,0.53263 -1.12575,0.53263 -1.22915,0 -1.86223,0.64526 -1.86223,1.89805 0,1.17293 0.66898,1.80611 1.9082,1.80611 0.72002,0 0.97315,0.12487 1.07978,0.53263 0.24638,0.94216 -1.44777,1.37174 -2.98785,0.75763 z M 9.7348194,16.133511 c 0.0725,-4.43177 0.0725,-4.43177 2.7183806,-4.43177 3.51064,0 4.27863,1.25139 0.85989,1.40115 -2.78269,0.1219 -2.82853,2.17072 -0.0486,2.17072 2.66361,0 2.57343,1.4076 -0.0983,1.53436 -2.66877,0.12662 -2.46747,2.3021 0.21302,2.3021 1.67945,0 1.72175,0.0171 1.80351,0.72761 0.0837,0.7276 0.0837,0.7276 -2.71838,0.7276 -2.8020906,0 -2.8020906,0 -2.7295506,-4.43177 z"
       id="path853"
       sodipodi:nodetypes="ssssssssscsssssssssssssscsscsscssccsssssssssssssssssssssscssssssscc" />
    <g
       inkscape:path-effect="#path-effect852"
       id="g850">
      <path
         inkscape:original-d="m 46.249506,111.39278 c -9.693579,-0.35753 -14.704705,-1.72272 -17.877118,-4.8703 -2.956047,-2.93291 -4.141063,-7.042636 -4.6368,-16.080769 -0.199169,-3.631187 -0.138242,-15.26551 0.274933,-52.499999 0.08018,-7.225531 0.24772,-10.009141 0.806098,-13.392857 0.706638,-4.282158 1.823235,-6.827852 3.925027,-8.948548 2.930183,-2.956535 7.148975,-4.173876 16.051464,-4.63168 4.622986,-0.237734 60.94083,0.07834 64.40282,0.361447 7.33519,0.599844 10.95066,1.746403 13.4787,4.274444 2.7435,2.743503 3.87568,6.835451 4.27816,15.462194 0.20445,4.382284 0.0636,53.230382 -0.1749,60.656528 -0.2819,8.77725 -0.85585,11.76656 -2.71161,14.12283 -0.68676,0.87197 -4.46784,3.71725 -5.47581,4.12056 -2.40547,0.96248 -7.44991,1.13997 -38.858821,1.3673 -23.054209,0.16685 -30.212686,0.17944 -33.482143,0.0589 z M 73.838792,78.294865 c 1.589155,-0.500127 2.252027,-0.840518 3.578291,-1.837489 2.699191,-2.029018 3.891068,-5.226384 2.948216,-7.908972 -0.72895,-2.073992 -2.28315,-3.519249 -5.550302,-5.161248 -3.801216,-1.910409 -5.276012,-3.722176 -4.003223,-4.9179 0.371638,-0.349134 0.690513,-0.440868 1.738329,-0.500075 0.705762,-0.03988 1.934885,0.02445 2.731382,0.142947 1.810314,0.269328 2.737651,0.05995 3.613457,-0.815852 0.571148,-0.571148 0.607496,-0.675257 0.527268,-1.510205 -0.116638,-1.213872 -0.735079,-1.845741 -2.272891,-2.322243 -3.257182,-1.009259 -7.852349,-0.461241 -10.504193,1.252728 -3.361386,2.172568 -4.508861,5.171079 -3.142843,8.212679 0.931446,2.073977 2.470846,3.378262 6.050795,5.126653 1.511853,0.738366 2.418921,1.312433 3.080357,1.949502 1.031964,0.993948 1.146652,1.427579 0.53063,2.006302 -0.715212,0.671907 -1.868511,0.940339 -4.771702,1.110625 -1.522321,0.08929 -3.176744,0.285332 -3.676496,0.435646 -1.812495,0.545161 -2.697296,1.52452 -2.254779,2.495743 0.454561,0.997652 2.818981,2.121627 5.465675,2.598218 1.500999,0.270286 4.492781,0.0896 5.912029,-0.357059 z m 25.746007,0.353645 c 1.824621,-0.24304 3.460851,-1.017586 4.003101,-1.894957 0.48929,-0.791695 0.50577,-1.974 0.0388,-2.785588 -0.52127,-0.906027 -1.27873,-1.169787 -3.895081,-1.356348 -3.718534,-0.26515 -5.240547,-1.071696 -6.376429,-3.379004 -0.571568,-1.161017 -0.587668,-1.25606 -0.58101,-3.430003 0.0084,-2.747214 0.377676,-3.887429 1.681078,-5.19083 1.186632,-1.186633 2.380593,-1.593065 5.245523,-1.785613 2.614269,-0.175702 3.396149,-0.454461 3.944139,-1.40618 0.21211,-0.368386 0.35181,-0.941015 0.35181,-1.442065 0,-1.12375 -0.56053,-1.879592 -1.83823,-2.478769 -0.93595,-0.438911 -1.16006,-0.467786 -3.587595,-0.462239 -3.009733,0.0069 -4.043954,0.231296 -6.517858,1.414328 -4.664646,2.230657 -7.430294,6.565641 -7.467437,11.704755 -0.05118,7.081274 5.135318,12.015273 13.30273,12.655102 0.164768,0.01291 0.928161,-0.06026 1.696429,-0.162589 z M 56.565776,77.422779 c 0.752286,-0.299971 0.937021,-0.668778 0.919359,-1.8354 -0.02154,-1.422794 -0.355597,-2.466228 -0.924641,-2.888148 -0.443709,-0.328987 -0.86877,-0.378816 -4.283897,-0.502187 -5.097294,-0.184143 -6.651166,-0.555732 -8.2653,-1.97655 -1.372476,-1.208102 -1.677625,-2.461115 -0.924601,-3.79664 0.904996,-1.605055 3.053137,-2.46228 7.176187,-2.863691 2.976466,-0.289782 4.138693,-0.549939 5.557177,-1.243939 1.157448,-0.566286 1.679446,-1.18415 1.679446,-1.98788 0,-0.743384 -0.442959,-1.212298 -1.670007,-1.767864 -1.213621,-0.549486 -2.476641,-0.75495 -5.919278,-0.962931 -3.906604,-0.236009 -5.481658,-0.735918 -6.753252,-2.143419 -0.565295,-0.625715 -0.657463,-0.847965 -0.657463,-1.585383 0,-2.428291 2.891216,-3.894328 8.498809,-4.30946 4.667598,-0.345545 7.258548,-1.09214 7.649672,-2.204295 0.151484,-0.430743 0.104669,-0.563977 -0.362225,-1.030871 -0.648424,-0.648424 -2.409938,-1.28949 -4.724313,-1.719315 -2.505239,-0.465273 -11.576798,-0.468237 -13.077904,-0.0043 -1.99426,0.616387 -2.899328,2.102375 -3.340156,5.484039 -0.256534,1.967916 -0.593945,15.698225 -0.467348,19.017857 0.130749,3.428507 0.345036,4.871236 0.906575,6.103687 0.517618,1.136059 1.542257,1.927829 2.831864,2.188272 0.508372,0.102668 1.085026,0.221202 1.281455,0.263409 0.196428,0.04221 3.491071,0.059 7.321428,0.03732 5.230886,-0.02961 7.109674,-0.09739 7.548413,-0.272338 z"
         style="fill:#ffffff;stroke:none;stroke-width:1.82227;stroke-linecap:round;stroke-linejoin:round;fill-opacity:1"
         d="m 46.249506,111.39278 c -9.693579,-0.35753 -14.704705,-1.72272 -17.877118,-4.8703 -2.956047,-2.93291 -4.141063,-7.042636 -4.6368,-16.080769 -0.199169,-3.631187 -0.138242,-15.26551 0.274933,-52.499999 0.08018,-7.225531 0.24772,-10.009141 0.806098,-13.392857 0.706638,-4.282158 1.823235,-6.827852 3.925027,-8.948548 2.930183,-2.956535 7.148975,-4.173876 16.051464,-4.63168 4.622986,-0.237734 60.94083,0.07834 64.40282,0.361447 7.33519,0.599844 10.95066,1.746403 13.4787,4.274444 2.7435,2.743503 3.87568,6.835451 4.27816,15.462194 0.20445,4.382284 0.0636,53.230382 -0.1749,60.656528 -0.2819,8.77725 -0.85585,11.76656 -2.71161,14.12283 -0.68676,0.87197 -4.46784,3.71725 -5.47581,4.12056 -2.40547,0.96248 -7.44991,1.13997 -38.858821,1.3673 -23.054209,0.16685 -30.212686,0.17944 -33.482143,0.0589 z M 73.838792,78.294865 c 1.589155,-0.500127 2.252027,-0.840518 3.578291,-1.837489 2.699191,-2.029018 3.891068,-5.226384 2.948216,-7.908972 -0.72895,-2.073992 -2.28315,-3.519249 -5.550302,-5.161248 -3.801216,-1.910409 -5.276012,-3.722176 -4.003223,-4.9179 0.371638,-0.349134 0.690513,-0.440868 1.738329,-0.500075 0.705762,-0.03988 1.934885,0.02445 2.731382,0.142947 1.810314,0.269328 2.737651,0.05995 3.613457,-0.815852 0.571148,-0.571148 0.607496,-0.675257 0.527268,-1.510205 -0.116638,-1.213872 -0.735079,-1.845741 -2.272891,-2.322243 -3.257182,-1.009259 -7.852349,-0.461241 -10.504193,1.252728 -3.361386,2.172568 -4.508861,5.171079 -3.142843,8.212679 0.931446,2.073977 2.470846,3.378262 6.050795,5.126653 1.511853,0.738366 2.418921,1.312433 3.080357,1.949502 1.031964,0.993948 1.146652,1.427579 0.53063,2.006302 -0.715212,0.671907 -1.868511,0.940339 -4.771702,1.110625 -1.522321,0.08929 -3.176744,0.285332 -3.676496,0.435646 -1.812495,0.545161 -2.697296,1.52452 -2.254779,2.495743 0.454561,0.997652 2.818981,2.121627 5.465675,2.598218 1.500999,0.270286 4.492781,0.0896 5.912029,-0.357059 z m 25.746007,0.353645 c 1.824621,-0.24304 3.460851,-1.017586 4.003101,-1.894957 0.48929,-0.791695 0.50577,-1.974 0.0388,-2.785588 -0.52127,-0.906027 -1.27873,-1.169787 -3.895081,-1.356348 -3.718534,-0.26515 -5.240547,-1.071696 -6.376429,-3.379004 -0.571568,-1.161017 -0.587668,-1.25606 -0.58101,-3.430003 0.0084,-2.747214 0.377676,-3.887429 1.681078,-5.19083 1.186632,-1.186633 2.380593,-1.593065 5.245523,-1.785613 2.614269,-0.175702 3.396149,-0.454461 3.944139,-1.40618 0.21211,-0.368386 0.35181,-0.941015 0.35181,-1.442065 0,-1.12375 -0.56053,-1.879592 -1.83823,-2.478769 -0.93595,-0.438911 -1.16006,-0.467786 -3.587595,-0.462239 -3.009733,0.0069 -4.043954,0.231296 -6.517858,1.414328 -4.664646,2.230657 -7.430294,6.565641 -7.467437,11.704755 -0.05118,7.081274 5.135318,12.015273 13.30273,12.655102 0.164768,0.01291 0.928161,-0.06026 1.696429,-0.162589 z M 56.565776,77.422779 c 0.752286,-0.299971 0.937021,-0.668778 0.919359,-1.8354 -0.02154,-1.422794 -0.355597,-2.466228 -0.924641,-2.888148 -0.443709,-0.328987 -0.86877,-0.378816 -4.283897,-0.502187 -5.097294,-0.184143 -6.651166,-0.555732 -8.2653,-1.97655 -1.372476,-1.208102 -1.677625,-2.461115 -0.924601,-3.79664 0.904996,-1.605055 3.053137,-2.46228 7.176187,-2.863691 2.976466,-0.289782 4.138693,-0.549939 5.557177,-1.243939 1.157448,-0.566286 1.679446,-1.18415 1.679446,-1.98788 0,-0.743384 -0.442959,-1.212298 -1.670007,-1.767864 -1.213621,-0.549486 -2.476641,-0.75495 -5.919278,-0.962931 -3.906604,-0.236009 -5.481658,-0.735918 -6.753252,-2.143419 -0.565295,-0.625715 -0.657463,-0.847965 -0.657463,-1.585383 0,-2.428291 2.891216,-3.894328 8.498809,-4.30946 4.667598,-0.345545 7.258548,-1.09214 7.649672,-2.204295 0.151484,-0.430743 0.104669,-0.563977 -0.362225,-1.030871 -0.648424,-0.648424 -2.409938,-1.28949 -4.724313,-1.719315 -2.505239,-0.465273 -11.576798,-0.468237 -13.077904,-0.0043 -1.99426,0.616387 -2.899328,2.102375 -3.340156,5.484039 -0.256534,1.967916 -0.593945,15.698225 -0.467348,19.017857 0.130749,3.428507 0.345036,4.871236 0.906575,6.103687 0.517618,1.136059 1.542257,1.927829 2.831864,2.188272 0.508372,0.102668 1.085026,0.221202 1.281455,0.263409 0.196428,0.04221 3.491071,0.059 7.321428,0.03732 5.230886,-0.02961 7.109674,-0.09739 7.548413,-0.272338 z"
         id="path831"
         transform="scale(0.26458333)" />
      <path
         inkscape:original-d="m 40.624506,140.51232 c -5.418714,-0.0839 -13.932463,-0.42728 -15.516988,-0.62585 -1.556426,-0.19505 -2.120087,-0.4253 -2.786137,-1.13813 -0.88352,-0.94558 -0.492667,-2.41915 2.33215,-8.79252 0.991587,-2.23722 2.077435,-4.42197 2.412997,-4.85499 3.937911,-5.08162 16.095209,-8.66236 34.36155,-10.12064 4.753048,-0.37945 17.742028,-0.53174 22.857142,-0.26799 15.7584,0.81256 27.51023,3.06356 34.7231,6.65102 3.38091,1.68156 5.15171,3.27679 6.28599,5.66273 1.94579,4.09294 3.56349,8.38008 3.74505,9.9249 0.15884,1.3514 -0.0499,1.62779 -1.40203,1.85685 -3.23744,0.54841 -15.25982,1.06386 -34.066395,1.46058 -8.39582,0.17711 -46.057513,0.3507 -52.946429,0.24404 z"
         style="fill:#c0c0c0;fill-opacity:1;stroke:none;stroke-width:1.82227;stroke-linecap:round;stroke-linejoin:round"
         d="m 40.624506,140.51232 c -5.418714,-0.0839 -13.932463,-0.42728 -15.516988,-0.62585 -1.556426,-0.19505 -2.120087,-0.4253 -2.786137,-1.13813 -0.88352,-0.94558 -0.492667,-2.41915 2.33215,-8.79252 0.991587,-2.23722 2.077435,-4.42197 2.412997,-4.85499 3.937911,-5.08162 16.095209,-8.66236 34.36155,-10.12064 4.753048,-0.37945 17.742028,-0.53174 22.857142,-0.26799 15.7584,0.81256 27.51023,3.06356 34.7231,6.65102 3.38091,1.68156 5.15171,3.27679 6.28599,5.66273 1.94579,4.09294 3.56349,8.38008 3.74505,9.9249 0.15884,1.3514 -0.0499,1.62779 -1.40203,1.85685 -3.23744,0.54841 -15.25982,1.06386 -34.066395,1.46058 -8.39582,0.17711 -46.057513,0.3507 -52.946429,0.24404 z"
         id="path833"
         transform="scale(0.26458333)" />
      <path
         inkscape:original-d="m 13.303078,134.80475 c -1.414343,-0.73293 -2.394833,-2.20727 -2.541169,-3.82108 -0.08125,-0.896 -0.02038,-1.14245 0.576455,-2.33436 2.552594,-5.09761 10.89031,-17.39183 12.042912,-17.75765 1.416943,-0.44972 1.855686,2.02737 0.991144,5.59587 -0.246429,1.01717 -0.856649,2.94574 -1.356046,4.28572 -1.690529,4.53601 -6.004248,12.89527 -7.153526,13.86232 -0.629682,0.52984 -1.724205,0.60218 -2.55977,0.16918 z"
         style="fill:#c0c0c0;fill-opacity:1;stroke:none;stroke-width:1.82227;stroke-linecap:round;stroke-linejoin:round"
         d="m 13.303078,134.80475 c -1.414343,-0.73293 -2.394833,-2.20727 -2.541169,-3.82108 -0.08125,-0.896 -0.02038,-1.14245 0.576455,-2.33436 2.552594,-5.09761 10.89031,-17.39183 12.042912,-17.75765 1.416943,-0.44972 1.855686,2.02737 0.991144,5.59587 -0.246429,1.01717 -0.856649,2.94574 -1.356046,4.28572 -1.690529,4.53601 -6.004248,12.89527 -7.153526,13.86232 -0.629682,0.52984 -1.724205,0.60218 -2.55977,0.16918 z"
         id="path835"
         transform="scale(0.26458333)" />
      <path
         inkscape:original-d="M 7.6163424,120.84161 C 7.056734,117.34201 6.7755316,106.31779 6.663269,83.477426 6.5403953,58.478194 6.8634534,39.063114 7.5003369,33.171481 7.7845613,30.5422 8.5475687,28.955482 11.289235,25.292247 c 2.218485,-2.964192 6.385417,-6.877771 6.839519,-6.423668 0.389413,0.389413 0.492845,7.80302 0.53766,38.537418 0.04947,33.929298 0.183685,42.104693 0.730704,44.510023 0.362537,1.59414 0.160123,2.51955 -1.062195,4.85625 -2.600799,4.97195 -9.2976306,14.5053 -10.3289633,14.70391 -0.200892,0.0387 -0.3105072,-0.13984 -0.3896173,-0.63457 z"
         style="fill:#c0c0c0;fill-opacity:1;stroke:none;stroke-width:1.82227;stroke-linecap:round;stroke-linejoin:round"
         d="M 7.6163424,120.84161 C 7.056734,117.34201 6.7755316,106.31779 6.663269,83.477426 6.5403953,58.478194 6.8634534,39.063114 7.5003369,33.171481 7.7845613,30.5422 8.5475687,28.955482 11.289235,25.292247 c 2.218485,-2.964192 6.385417,-6.877771 6.839519,-6.423668 0.389413,0.389413 0.492845,7.80302 0.53766,38.537418 0.04947,33.929298 0.183685,42.104693 0.730704,44.510023 0.362537,1.59414 0.160123,2.51955 -1.062195,4.85625 -2.600799,4.97195 -9.2976306,14.5053 -10.3289633,14.70391 -0.200892,0.0387 -0.3105072,-0.13984 -0.3896173,-0.63457 z"
         id="path837"
         transform="scale(0.26458333)" />
      <path
         inkscape:original-d="m 141.68239,119.69588 c -0.89624,-0.82613 -4.14468,-5.55485 -4.57981,-6.6668 -3.7909,-9.68723 -7.6793,-79.890693 -5.12541,-92.537147 0.10351,-0.512557 0.33846,-1.115236 0.52211,-1.339286 l 0.33392,-0.407364 0.85832,0.446429 c 1.77467,0.923043 6.60319,6.086509 8.25034,8.822665 1.375,2.284069 1.84009,4.483166 2.1751,10.284478 0.29131,5.044776 0.44573,63.648435 0.18821,71.428575 -0.25323,7.65044 -0.6308,10.25223 -1.53831,10.60048 -0.18048,0.0692 -0.56984,-0.15767 -1.08447,-0.63203 z"
         style="fill:#c0c0c0;fill-opacity:1;stroke:none;stroke-width:1.82227;stroke-linecap:round;stroke-linejoin:round"
         d="m 141.68239,119.69588 c -0.89624,-0.82613 -4.14468,-5.55485 -4.57981,-6.6668 -3.7909,-9.68723 -7.6793,-79.890693 -5.12541,-92.537147 0.10351,-0.512557 0.33846,-1.115236 0.52211,-1.339286 l 0.33392,-0.407364 0.85832,0.446429 c 1.77467,0.923043 6.60319,6.086509 8.25034,8.822665 1.375,2.284069 1.84009,4.483166 2.1751,10.284478 0.29131,5.044776 0.44573,63.648435 0.18821,71.428575 -0.25323,7.65044 -0.6308,10.25223 -1.53831,10.60048 -0.18048,0.0692 -0.56984,-0.15767 -1.08447,-0.63203 z"
         id="path839"
         transform="scale(0.26458333)" />
    </g>
    <path
       transform="scale(0.26458333)"
       id="path841"
       d="m 135.31381,134.70394 c -1.62727,-1.71061 -7.78352,-15.5 -8.98701,-20.12999 -0.72827,-2.80175 -0.54162,-3.97053 0.59003,-3.69473 0.66121,0.16114 3.38747,2.94784 5.07498,5.18749 3.00903,3.99356 6.52023,9.54555 7.50491,11.86694 0.74864,1.76493 0.88821,3.5454 0.3592,4.58233 -0.61863,1.21263 -2.68902,2.92573 -3.53591,2.92573 -0.16741,0 -0.6202,-0.332 -1.0062,-0.73777 z"
       style="fill:#c0c0c0;fill-opacity:1;stroke:none;stroke-width:1.82227;stroke-linecap:round;stroke-linejoin:round" />
  </g>
</svg>
